<svg width="32" height="33" viewBox="0 0 32 33" fill="none" xmlns="http://www.w3.org/2000/svg">
<path fill-rule="evenodd" clip-rule="evenodd" d="M12.115 3.51633C12.329 3.03483 12.8065 2.72452 13.3334 2.72452H21.2175C21.6559 2.72452 22.0663 2.94005 22.3152 3.301C22.564 3.66195 22.6196 4.12217 22.4637 4.53195L19.673 11.8674H24.0001C24.5378 11.8674 25.0229 12.1904 25.2303 12.6865C25.4376 13.1826 25.3267 13.7547 24.949 14.1374L10.2823 28.9946C9.85289 29.4295 9.18271 29.5168 8.6562 29.2064C8.12969 28.8959 7.88169 28.2673 8.05446 27.681L11.0867 17.3912H8.00009C7.54874 17.3912 7.12804 17.1628 6.8821 16.7844C6.63615 16.406 6.59836 15.9288 6.78167 15.5163L12.115 3.51633ZM14.1999 5.39118L10.0518 14.7245H12.8697C13.29 14.7245 13.6857 14.9227 13.9374 15.2593C14.1892 15.5959 14.2674 16.0316 14.1486 16.4347L12.1122 23.345L20.8103 14.534H17.7392C17.3008 14.534 16.8904 14.3185 16.6415 13.9576C16.3926 13.5966 16.3371 13.1364 16.493 12.7266L19.2837 5.39118H14.1999Z" fill="#F3BA2F"/>
</svg>
