<svg width="32" height="33" viewBox="0 0 32 33" fill="none" xmlns="http://www.w3.org/2000/svg">
<path fill-rule="evenodd" clip-rule="evenodd" d="M26.6666 8.72452C26.6666 6.88357 25.1742 5.39118 23.3333 5.39118L3.99992 5.39119C3.26354 5.39119 2.66658 4.79423 2.66658 4.05785C2.66658 3.32147 3.26354 2.72452 3.99992 2.72452L23.3333 2.72452C26.647 2.72452 29.3333 5.41081 29.3333 8.72452C29.3333 12.0382 26.647 14.7245 23.3333 14.7245L8.66658 14.7245C6.82563 14.7245 5.33325 16.2169 5.33325 18.0579C5.33325 19.8988 6.82564 21.3912 8.66658 21.3912L24.8247 21.3912L21.8172 18.3248C21.3016 17.7991 21.3098 16.9549 21.8355 16.4393C22.3613 15.9236 23.2054 15.9318 23.7211 16.4576L28.9518 21.7909C29.4604 22.3094 29.4604 23.1396 28.9518 23.6581L23.7211 28.9915C23.2054 29.5172 22.3613 29.5254 21.8355 29.0098C21.3098 28.4941 21.3016 27.65 21.8172 27.1242L24.8247 24.0579L8.66658 24.0579C5.35288 24.0579 2.66658 21.3716 2.66658 18.0579C2.66658 14.7441 5.35288 12.0579 8.66658 12.0579L23.3333 12.0579C25.1742 12.0579 26.6666 10.5655 26.6666 8.72452Z" fill="#F3BA2F"/>
</svg>
