<svg width="32" height="33" viewBox="0 0 32 33" fill="none" xmlns="http://www.w3.org/2000/svg">
<path fill-rule="evenodd" clip-rule="evenodd" d="M6.66667 4.05786C5.19391 4.05786 4 5.25177 4 6.72453V8.05786V12.0579C4 13.5306 5.19391 14.7245 6.66667 14.7245H12C13.4728 14.7245 14.6667 13.5306 14.6667 12.0579V6.72453C14.6667 5.25177 13.4728 4.05786 12 4.05786H6.66667ZM6.66667 6.72453H12V12.0579H6.66667V8.05786V6.72453ZM20 4.05786C18.5272 4.05786 17.3333 5.25177 17.3333 6.72453V8.05786V12.0579C17.3333 13.5306 18.5272 14.7245 20 14.7245H25.3333C26.8061 14.7245 28 13.5306 28 12.0579V6.72453C28 5.25177 26.8061 4.05786 25.3333 4.05786H20ZM20 6.72453H25.3333V12.0579H20V8.05786V6.72453ZM17.3333 20.0579C17.3333 18.5851 18.5272 17.3912 20 17.3912H25.3333C26.8061 17.3912 28 18.5851 28 20.0579V25.3912C28 26.864 26.8061 28.0579 25.3333 28.0579H20C18.5272 28.0579 17.3333 26.864 17.3333 25.3912V21.3912V20.0579ZM25.3333 20.0579H20V21.3912V25.3912H25.3333V20.0579ZM6.66667 17.3912C5.19391 17.3912 4 18.5851 4 20.0579V21.3912V25.3912C4 26.864 5.19391 28.0579 6.66667 28.0579H12C13.4728 28.0579 14.6667 26.864 14.6667 25.3912V20.0579C14.6667 18.5851 13.4728 17.3912 12 17.3912H6.66667ZM6.66667 20.0579H12V25.3912H6.66667V21.3912V20.0579Z" fill="#F3BA2F"/>
</svg>
