<svg width="16" height="16" viewBox="0 0 16 16" fill="none" xmlns="http://www.w3.org/2000/svg">
<path fill-rule="evenodd" clip-rule="evenodd" d="M9.3335 1.33331H4.00016C2.5274 1.33331 1.3335 2.52722 1.3335 3.99998V9.33331C1.3335 10.8061 2.5274 12 4.00016 12C4.00016 13.4727 5.19407 14.6666 6.66683 14.6666H9.00016H12.0002C13.4729 14.6666 14.6668 13.4727 14.6668 12V6.66665C14.6668 5.19389 13.4729 3.99998 12.0002 3.99998C12.0002 2.52722 10.8063 1.33331 9.3335 1.33331ZM12.0002 5.33331V9.33331C12.0002 10.8061 10.8063 12 9.3335 12H5.3335C5.3335 12.7364 5.93045 13.3333 6.66683 13.3333H9.00016H12.0002C12.7365 13.3333 13.3335 12.7364 13.3335 12V6.66665C13.3335 5.93027 12.7365 5.33331 12.0002 5.33331ZM2.66683 3.99998C2.66683 3.2636 3.26378 2.66665 4.00016 2.66665H9.3335C10.0699 2.66665 10.6668 3.2636 10.6668 3.99998V9.33331C10.6668 10.0697 10.0699 10.6666 9.3335 10.6666H4.00016C3.26378 10.6666 2.66683 10.0697 2.66683 9.33331V3.99998Z" fill="#ACACAC"/>
</svg>
