<svg width="32" height="33" viewBox="0 0 32 33" fill="none" xmlns="http://www.w3.org/2000/svg">
<path fill-rule="evenodd" clip-rule="evenodd" d="M22.2114 23.0613C22.7656 22.5764 22.8218 21.734 22.3368 21.1799C21.8519 20.6257 21.0096 20.5695 20.4554 21.0544L17.3334 23.7862V10.7245C17.3334 9.98815 16.7365 9.39119 16.0001 9.39119C15.2637 9.39119 14.6667 9.98815 14.6667 10.7245V23.7862L11.5448 21.0544C10.9906 20.5695 10.1482 20.6257 9.66331 21.1799C9.1784 21.734 9.23456 22.5764 9.78874 23.0613L15.1221 27.728C15.6248 28.1678 16.3754 28.1678 16.8781 27.728L22.2114 23.0613ZM5.33341 10.7245C5.33341 11.4609 4.73646 12.0579 4.00008 12.0579C3.2637 12.0579 2.66675 11.4609 2.66675 10.7245V6.72453C2.66675 5.25177 3.86066 4.05786 5.33341 4.05786H26.6667C28.1395 4.05786 29.3334 5.25177 29.3334 6.72453V10.7245C29.3334 11.4609 28.7365 12.0579 28.0001 12.0579C27.2637 12.0579 26.6667 11.4609 26.6667 10.7245V6.72453H5.33341V10.7245Z" fill="#F3BA2F"/>
</svg>
