<svg width="55" height="55" viewBox="0 0 55 55" fill="none" xmlns="http://www.w3.org/2000/svg">
<g clip-path="url(#clip0_196_75)">
<path d="M16.8178 23.1178L27.4875 12.448L38.1827 23.1178L44.4067 16.9192L27.4875 0L10.5938 16.8938L16.8178 23.1178Z" fill="#F3BA2F"/>
<path d="M-0.00533452 27.5136L6.20996 33.7289L12.4253 27.5136L6.20996 21.2983L-0.00533452 27.5136Z" fill="#F3BA2F"/>
<path d="M16.8178 31.9076L27.4875 42.5773L38.1827 31.9076L44.4067 38.1062L27.4875 55.0254L10.5938 38.1062L16.8178 31.9076Z" fill="#F3BA2F"/>
<path d="M48.7768 21.3038L42.5615 27.519L48.7768 33.7343L54.9921 27.519L48.7768 21.3038Z" fill="#F3BA2F"/>
<path d="M33.787 27.5128H33.8124L27.4868 21.2125L22.8378 25.8615L22.3043 26.395L21.1865 27.5128L27.4868 33.813L33.8124 27.5128H33.787Z" fill="#F3BA2F"/>
</g>
<defs>
<clipPath id="clip0_196_75">
<rect width="55" height="55" fill="white"/>
</clipPath>
</defs>
</svg>
